<svg width="24" height="24" viewBox="0 0 24 24" fill="none" xmlns="http://www.w3.org/2000/svg">
<path d="M9 19.6919C9.66345 20.1944 10.5396 20.5 11.5 20.5C12.4604 20.5 13.3366 20.1944 14 19.6919M4.47591 17.106C4.08065 17.106 3.85988 16.5173 4.09898 16.1902C4.65378 15.4311 5.18927 14.3179 5.18927 12.9773L5.21215 11.0348C5.21215 7.42573 7 4 11.5 4C16 4 17.8805 7.46883 17.8805 11.1311L17.8576 12.9773C17.8576 14.3271 18.3746 15.4464 18.9069 16.2058C19.1367 16.5337 18.9154 17.106 18.525 17.106H4.47591Z" stroke="#232323" stroke-width="2" stroke-linecap="round" stroke-linejoin="round"/>
<circle cx="19.7" cy="4.3" r="1.5" fill="#232323"/>
</svg>
