<svg width="42" height="20" viewBox="0 0 42 20" fill="none" xmlns="http://www.w3.org/2000/svg">
<g clip-path="url(#clip0_0_521)">
<path d="M6.77383 0C5.72452 0 4.90594 0.815098 4.90594 1.85996C4.90594 2.90481 5.74649 3.71991 6.77383 3.71991C7.80117 3.71991 8.64172 2.86652 8.64172 1.85996C8.64172 0.853392 7.80117 0 6.77383 0Z" fill="#232323"/>
<path d="M5.24657 12.2593C5.24657 14.8304 3.13695 16.942 0.543885 16.9639H0V20H0.549379C4.82354 20 8.30111 16.5263 8.30111 12.2593V4.80853H5.25206V12.2593H5.24657Z" fill="#232323"/>
<path d="M17.3988 4.54048C13.1137 4.54048 9.62512 8.00328 9.62512 12.2538C9.62512 16.5044 13.1137 19.9945 17.3988 19.9945C21.684 19.9945 25.1451 16.5208 25.1451 12.2538C25.1451 7.98687 21.6675 4.54048 17.3988 4.54048ZM22.096 12.2538C22.096 14.8468 19.9864 16.9584 17.3988 16.9584C14.8113 16.9584 12.6742 14.8468 12.6742 12.2538C12.6742 9.66083 14.7948 7.57659 17.3988 7.57659C20.0029 7.57659 22.096 9.67724 22.096 12.2538Z" fill="#232323"/>
<path d="M38.9509 0V6.12691C37.605 5.10941 35.9513 4.54595 34.2537 4.54595C29.9686 4.54595 26.48 8.00875 26.48 12.2593C26.48 16.5098 29.9686 20 34.2537 20C38.5389 20 42 16.5263 42 12.2593V0H38.9509ZM38.9509 12.2593C38.9509 14.8523 36.8413 16.9639 34.2537 16.9639C31.6662 16.9639 29.5291 14.8523 29.5291 12.2593C29.5291 9.6663 31.6497 7.58206 34.2537 7.58206C36.8578 7.58206 38.9509 9.68271 38.9509 12.2593Z" fill="#232323"/>
</g>
<defs>
<clipPath id="clip0_0_521">
<rect width="42" height="20" fill="white"/>
</clipPath>
</defs>
</svg>
