<svg xmlns="http://www.w3.org/2000/svg" width="25" height="24" viewBox="0 0 25 24" fill="none">
  <path d="M8.51018 20.5795C8.09102 20.7193 7.86449 21.1723 8.00421 21.5915C8.14393 22.0106 8.59699 22.2372 9.01614 22.0974L8.51018 20.5795ZM14.9939 21.7539L14.9213 20.9572L14.9939 21.7539ZM18.7324 20.9231L19.0832 21.6421L18.7324 20.9231ZM22.3046 17.6735L21.6829 17.17V17.17L22.3046 17.6735ZM19.8614 15.6403L20.4271 16.2059L19.8614 15.6403ZM18.2162 17.2854L18.7819 17.8511L18.2162 17.2854ZM13.7478 17.2154C13.3059 17.2154 12.9478 17.5736 12.9478 18.0154C12.9478 18.4572 13.3059 18.8154 13.7478 18.8154V17.2154ZM21.9247 15.4359L21.481 16.1016L21.9247 15.4359ZM10.0276 14.8909L10.3853 15.6064H10.3853L10.0276 14.8909ZM14.4991 14.4819L14.2886 15.2537L14.4991 14.4819ZM16.2453 14.9581L16.4558 14.1863L16.2453 14.9581ZM16.7986 17.0415L17.3643 17.6072L16.7986 17.0415ZM15.259 17.4497C14.9466 17.7621 14.9466 18.2687 15.259 18.5811C15.5714 18.8935 16.078 18.8935 16.3904 18.5811L15.259 17.4497ZM9.01614 22.0974C9.17185 22.0455 9.45601 22.0201 9.91346 22.0527C10.3546 22.0842 10.8668 22.1612 11.4429 22.2517C12.548 22.4253 13.9069 22.6562 15.0665 22.5506L14.9213 20.9572C14.004 21.0407 12.8706 20.8563 11.6911 20.6711C11.1249 20.5821 10.5467 20.4938 10.0273 20.4568C9.52416 20.4209 8.97754 20.4238 8.51018 20.5795L9.01614 22.0974ZM15.0665 22.5506C15.8424 22.4799 16.4768 22.4481 17.0659 22.3415C17.6956 22.2275 18.2887 22.0298 19.0832 21.6421L18.3815 20.2041C17.6894 20.5419 17.237 20.6845 16.781 20.7671C16.2844 20.8569 15.7929 20.8778 14.9213 20.9572L15.0665 22.5506ZM19.0832 21.6421C19.8394 21.273 20.5775 20.673 21.2205 20.0551C21.8713 19.4299 22.4637 18.7482 22.9262 18.177L21.6829 17.17C21.2453 17.7103 20.6987 18.3376 20.112 18.9014C19.5175 19.4726 18.9195 19.9416 18.3815 20.2041L19.0832 21.6421ZM19.2957 15.0746L17.6505 16.7197L18.7819 17.8511L20.4271 16.2059L19.2957 15.0746ZM16.4539 17.2154H13.7478V18.8154H16.4539V17.2154ZM17.6505 16.7197C17.3332 17.0371 16.9027 17.2154 16.4539 17.2154V18.8154C17.3271 18.8154 18.1645 18.4685 18.7819 17.8511L17.6505 16.7197ZM22.3685 14.7703C21.4026 14.1264 20.1165 14.2537 19.2957 15.0746L20.4271 16.2059C20.7086 15.9244 21.1497 15.8807 21.481 16.1016L22.3685 14.7703ZM22.9262 18.177C23.8191 17.0747 23.487 15.516 22.3685 14.7703L21.481 16.1016C21.878 16.3663 21.9364 16.857 21.6829 17.17L22.9262 18.177ZM4.19393 14.6616H7.517V13.0616H4.19393V14.6616ZM7.54777 14.6923V22.1693H9.14777V14.6923H7.54777ZM7.517 22.2H4.19393V23.8H7.517V22.2ZM4.16316 22.1693V14.6923H2.56316V22.1693H4.16316ZM4.19393 22.2C4.17693 22.2 4.16316 22.1862 4.16316 22.1693H2.56316C2.56316 23.0699 3.29328 23.8 4.19393 23.8V22.2ZM7.54777 22.1693C7.54777 22.1862 7.534 22.2 7.517 22.2V23.8C8.41765 23.8 9.14777 23.0699 9.14777 22.1693H7.54777ZM7.517 14.6616C7.534 14.6616 7.54777 14.6753 7.54777 14.6923H9.14777C9.14777 13.7917 8.41765 13.0616 7.517 13.0616V14.6616ZM4.19393 13.0616C3.29328 13.0616 2.56316 13.7917 2.56316 14.6923H4.16316C4.16316 14.6753 4.17693 14.6616 4.19393 14.6616V13.0616ZM9.12093 16.2386L10.3853 15.6064L9.6698 14.1754L8.40539 14.8076L9.12093 16.2386ZM12.6283 15.0769H12.969V13.4769H12.6283V15.0769ZM14.2886 15.2537L16.0348 15.7299L16.4558 14.1863L14.7096 13.71L14.2886 15.2537ZM16.2329 16.4758L15.259 17.4497L16.3904 18.5811L17.3643 17.6072L16.2329 16.4758ZM16.0348 15.7299C16.3653 15.82 16.4751 16.2336 16.2329 16.4758L17.3643 17.6072C18.4752 16.4963 17.9715 14.5997 16.4558 14.1863L16.0348 15.7299ZM12.969 15.0769C13.4148 15.0769 13.8586 15.1364 14.2886 15.2537L14.7096 13.71C14.1423 13.5553 13.557 13.4769 12.969 13.4769V15.0769ZM10.3853 15.6064C11.0818 15.2582 11.8497 15.0769 12.6283 15.0769V13.4769C11.6013 13.4769 10.5884 13.7161 9.6698 14.1754L10.3853 15.6064ZM18.3478 8.04618C18.3478 9.43963 17.2182 10.5693 15.8247 10.5693V12.1693C18.1018 12.1693 19.9478 10.3233 19.9478 8.04618H18.3478ZM15.8247 10.5693C14.4312 10.5693 13.3016 9.43963 13.3016 8.04618H11.7016C11.7016 10.3233 13.5476 12.1693 15.8247 12.1693V10.5693ZM13.3016 8.04618C13.3016 6.65272 14.4312 5.5231 15.8247 5.5231V3.9231C13.5476 3.9231 11.7016 5.76907 11.7016 8.04618H13.3016ZM15.8247 5.5231C17.2182 5.5231 18.3478 6.65272 18.3478 8.04618H19.9478C19.9478 5.76907 18.1018 3.9231 15.8247 3.9231V5.5231ZM12.5016 7.24618C11.1082 7.24618 9.97854 6.11656 9.97854 4.7231H8.37854C8.37854 7.00021 10.2245 8.84618 12.5016 8.84618V7.24618ZM9.97854 4.7231C9.97854 3.32964 11.1082 2.20002 12.5016 2.20002V0.600024C10.2245 0.600024 8.37854 2.44599 8.37854 4.7231H9.97854ZM12.5016 2.20002C13.8951 2.20002 15.0247 3.32964 15.0247 4.7231H16.6247C16.6247 2.44599 14.7787 0.600024 12.5016 0.600024V2.20002Z" fill="#B0B0B0"/>
</svg>