<svg width="24" height="24" viewBox="0 0 24 24" fill="none" xmlns="http://www.w3.org/2000/svg">
<path d="M7.80001 7.8H16.2M7.80001 12.6H16.2M5.76001 3H18.24C19.1016 3 19.8 3.80589 19.8 4.8V19.4731C19.8 20.1185 19.0752 20.4982 18.5446 20.1309L17.8831 19.6729C17.4721 19.3884 16.9279 19.3884 16.517 19.6729L15.2831 20.5271C14.8721 20.8116 14.3279 20.8116 13.917 20.5271L12.6831 19.6729C12.2721 19.3884 11.7279 19.3884 11.317 19.6729L10.0831 20.5271C9.67213 20.8116 9.12789 20.8116 8.71696 20.5271L7.48306 19.6729C7.07213 19.3884 6.52789 19.3884 6.11696 19.6729L5.45538 20.1309C4.9248 20.4982 4.20001 20.1185 4.20001 19.4731V4.8C4.20001 3.80589 4.89845 3 5.76001 3Z" stroke="#B0B0B0" stroke-width="1.2" stroke-linecap="round" stroke-linejoin="round"/>
</svg>
